<?xml version="1.0" standalone="no"?>
<!DOCTYPE svg PUBLIC "-//W3C//DTD SVG 20010904//EN"
        "http://www.w3.org/TR/2001/REC-SVG-20010904/DTD/svg10.dtd">
<svg version="1.0" xmlns="http://www.w3.org/2000/svg"
     width="400.000000pt" height="400.000000pt" viewBox="120 100 260.000000 240.000000"
     preserveAspectRatio="xMidYMid meet">

    <g transform="translate(0.000000,500.000000) scale(0.100000,-0.100000)"
       fill="#0B4B37" stroke="none">
        <path d="M3231 3826 c-8 -9 -11 -43 -9 -93 l3 -78 30 0 30 0 3 80 c2 66 0 82
-14 92 -23 16 -29 16 -43 -1z"/>
        <path d="M3428 3660 c-13 -8 -16 -27 -16 -102 0 -67 -6 -112 -21 -158 -26 -82
-26 -105 0 -131 27 -27 76 -21 128 16 21 14 42 25 48 25 33 0 26 -108 -10
-162 -12 -18 -39 -41 -60 -51 l-38 -19 -20 26 c-14 17 -30 26 -50 26 -65 0
-93 -80 -43 -119 53 -42 190 -15 254 49 39 39 70 125 70 191 0 56 -28 137 -52
150 -28 15 -81 5 -118 -21 -17 -12 -30 -19 -30 -16 0 2 7 35 16 73 21 90 16
200 -11 219 -22 16 -25 17 -47 4z"/>
        <path d="M3698 3649 c-14 -8 -18 -24 -18 -78 0 -75 12 -95 52 -89 21 3 23 8
26 76 4 93 -13 119 -60 91z"/>
        <path d="M2485 3491 c-89 -25 -175 -75 -232 -134 -62 -64 -127 -171 -144 -237
-12 -46 -31 -68 -286 -320 -275 -273 -296 -299 -260 -328 6 -5 23 -12 36 -14
22 -3 3 -22 -140 -151 -203 -183 -204 -185 -187 -221 12 -27 14 -28 68 -22 30
3 117 21 193 40 148 38 164 47 275 148 34 32 67 58 71 58 5 0 35 -18 67 -39
71 -47 139 -75 223 -92 l62 -12 45 -89 45 -89 -23 -29 c-14 -18 -70 -51 -148
-88 -165 -78 -166 -79 -174 -47 -5 20 -13 25 -37 25 -27 0 -32 -6 -51 -50 -16
-38 -30 -55 -62 -73 -44 -24 -59 -64 -35 -93 18 -22 49 -17 135 24 119 58 385
175 387 171 20 -36 27 -45 41 -47 24 -5 63 33 76 74 8 22 22 38 48 50 20 10
73 34 117 55 l79 37 18 -29 c10 -16 24 -29 32 -29 26 0 66 41 78 82 11 37 18
43 82 73 39 17 96 43 126 57 30 15 92 43 136 63 l82 37 52 -41 c56 -44 80 -50
104 -25 22 22 21 29 -20 73 l-35 40 50 26 c54 27 74 62 51 90 -20 24 -50 18
-169 -36 -62 -27 -115 -49 -116 -47 -2 2 7 28 20 58 14 30 24 65 25 76 0 28
-23 46 -52 42 -25 -3 -71 -86 -103 -187 l-18 -54 -123 -58 c-68 -33 -129 -59
-135 -59 -12 0 -31 20 -49 52 -9 15 -2 22 42 44 133 67 242 178 310 315 77
153 97 317 58 464 -10 39 -17 71 -16 71 0 1 29 16 64 33 35 18 62 37 59 44 -2
8 -37 14 -95 17 -50 3 -93 8 -96 11 -3 3 16 46 44 95 27 49 50 92 50 97 0 13
-30 8 -72 -13 -53 -26 -60 -25 -89 6 -32 35 -161 99 -227 113 -75 16 -187 12
-257 -8z m246 -97 c74 -22 189 -94 189 -118 0 -5 -18 -38 -41 -72 -25 -39 -39
-72 -37 -86 3 -21 9 -23 78 -28 l75 -5 17 -50 c12 -35 17 -84 18 -161 0 -177
-42 -282 -166 -414 -54 -57 -83 -78 -167 -119 -124 -61 -202 -81 -328 -81
-155 0 -298 47 -423 140 -88 64 -88 66 6 74 155 13 260 48 373 126 111 77 188
281 121 325 -32 22 -53 10 -81 -45 -28 -56 -113 -136 -178 -168 -57 -28 -154
-49 -272 -58 l-90 -6 181 183 c170 174 182 187 198 244 10 33 27 77 38 98 23
47 134 159 180 183 100 52 212 66 309 38z m-957 -993 c16 -18 13 -22 -65 -94
-68 -63 -89 -78 -131 -87 -28 -6 -53 -9 -55 -6 -5 5 217 206 227 206 4 0 15
-8 24 -19z m845 -255 c12 -18 21 -38 21 -43 0 -9 -192 -103 -210 -103 -7 0
-70 139 -70 154 0 3 28 7 63 7 34 1 76 5 92 9 63 16 82 12 104 -24z"/>
        <path d="M2620 3250 c-24 -24 -25 -48 -4 -78 19 -27 64 -29 87 -4 24 26 21 68
-5 86 -30 21 -54 20 -78 -4z"/>


    </g>
</svg>
